<mxfile host="app.diagrams.net" modified="2024-03-30T07:17:29.092Z" agent="Mozilla/5.0 (Windows NT 10.0; Win64; x64) AppleWebKit/537.36 (KHTML, like Gecko) Chrome/123.0.0.0 Safari/537.36 Edg/123.0.0.0" version="24.2.0" etag="2pP0BnDyt9gywRtJb7i3" type="github">
  <diagram name="Page-1" id="U0RTyGLgPEEzjhD5bsjp">
    <mxGraphModel>
      <root>
        <mxCell id="0" />
        <mxCell id="1" parent="0" />
      </root>
    </mxGraphModel>
  </diagram>
</mxfile>
